<mxfile host="app.diagrams.net" modified="2023-05-06T15:28:03.544Z" agent="Mozilla/5.0 (Macintosh; Intel Mac OS X 10_15_7) AppleWebKit/605.1.15 (KHTML, like Gecko) Version/15.3 Safari/605.1.15" version="21.2.4" etag="KN92jB5eXjgx_NqwTGC4" type="github">
  <diagram name="第 1 页" id="sODsTmwQgJK6CyNibNSA">
    <mxGraphModel>
      <root>
        <mxCell id="0" />
        <mxCell id="1" parent="0" />
      </root>
    </mxGraphModel>
  </diagram>
</mxfile>
